<svg width="154" height="34" viewBox="0 0 154 34" fill="none" xmlns="http://www.w3.org/2000/svg">
<path d="M17 23C13.6863 23 11 20.3137 11 17C11 13.6863 13.6863 11 17 11C20.3137 11 23 13.6863 23 17C23 20.3137 20.3137 23 17 23Z" fill="#1901F3"/>
<path d="M5.37623 19.0497C3.63748 19.3563 2.44566 21.0359 3.11311 22.6705C4.04495 24.9525 5.53158 26.9857 7.45889 28.5745C10.2148 30.8462 13.6908 32.0601 17.2618 31.9978C20.8328 31.9355 24.2644 30.601 26.9394 28.2344C28.81 26.5794 30.2248 24.4955 31.0765 22.1824C31.6865 20.5255 30.4367 18.8885 28.6883 18.6428C26.94 18.3971 25.3702 19.6697 24.5066 21.2097C24.0385 22.0444 23.4308 22.8017 22.7028 23.4458C21.168 24.8037 19.1991 25.5693 17.1503 25.6051C15.1014 25.6408 13.107 24.9444 11.5258 23.6409C10.7757 23.0226 10.142 22.287 9.64502 21.4691C8.72823 19.9602 7.11498 18.7431 5.37623 19.0497Z" fill="#AABB14"/>
<path d="M31.884 18.8745C31.9606 18.2604 32 17.6348 32 17C32 8.71573 25.2843 2 17 2C8.71573 2 2 8.71573 2 17C2 17.8147 2.06495 18.6142 2.18996 19.3937C2.87894 18.4505 3.95426 17.7772 5.11576 17.5724C6.37245 17.3508 7.51458 17.6556 8.48027 18.2253C8.42322 17.8251 8.3937 17.416 8.3937 17C8.3937 12.2469 12.2469 8.3937 17 8.3937C21.7531 8.3937 25.6063 12.2469 25.6063 17C25.6063 17.3134 25.5895 17.6229 25.5569 17.9276C26.5022 17.3243 27.6332 16.9796 28.8971 17.1573C30.0647 17.3214 31.1625 17.9564 31.884 18.8745Z" fill="#DBF301"/>
<path d="M52.264 24V14H49.176V12.08H57.496V14H54.456V24H52.264ZM61.8239 24V12.08H66.2559C67.0665 12.08 67.7812 12.2293 68.3999 12.528C69.0292 12.816 69.5199 13.2427 69.8719 13.808C70.2239 14.3627 70.3999 15.04 70.3999 15.84C70.3999 16.6613 70.2025 17.36 69.8079 17.936C69.4239 18.512 68.9012 18.9387 68.2399 19.216L70.9759 24H68.5119L65.5839 18.768L66.9919 19.6H63.9999V24H61.8239ZM63.9999 17.68H66.2879C66.6825 17.68 67.0239 17.6053 67.3119 17.456C67.5999 17.296 67.8239 17.0773 67.9839 16.8C68.1439 16.5227 68.2239 16.2027 68.2239 15.84C68.2239 15.4667 68.1439 15.1467 67.9839 14.88C67.8239 14.6027 67.5999 14.3893 67.3119 14.24C67.0239 14.08 66.6825 14 66.2879 14H63.9999V17.68ZM74.426 24L78.538 12.08H81.354L85.466 24H83.098L82.25 21.44H77.642L76.778 24H74.426ZM78.266 19.52H81.626L79.642 13.584H80.25L78.266 19.52ZM94.9083 24.192C94.0549 24.192 93.2656 24.0373 92.5403 23.728C91.8256 23.4187 91.1963 22.9867 90.6523 22.432C90.1189 21.8773 89.7029 21.2267 89.4043 20.48C89.1056 19.7333 88.9563 18.9173 88.9563 18.032C88.9563 17.1467 89.1003 16.3307 89.3883 15.584C89.6869 14.8267 90.1029 14.176 90.6363 13.632C91.1803 13.0773 91.8149 12.6507 92.5403 12.352C93.2656 12.0427 94.0549 11.888 94.9083 11.888C95.7616 11.888 96.5243 12.032 97.1962 12.32C97.8789 12.608 98.4549 12.992 98.9243 13.472C99.3936 13.9413 99.7296 14.4587 99.9323 15.024L97.9803 15.936C97.7563 15.3387 97.3776 14.848 96.8443 14.464C96.3109 14.0693 95.6656 13.872 94.9083 13.872C94.1616 13.872 93.5003 14.048 92.9243 14.4C92.3589 14.752 91.9163 15.2373 91.5963 15.856C91.2869 16.4747 91.1323 17.2 91.1323 18.032C91.1323 18.864 91.2869 19.5947 91.5963 20.224C91.9163 20.8427 92.3589 21.328 92.9243 21.68C93.5003 22.032 94.1616 22.208 94.9083 22.208C95.6656 22.208 96.3109 22.016 96.8443 21.632C97.3776 21.2373 97.7563 20.7413 97.9803 20.144L99.9323 21.056C99.7296 21.6213 99.3936 22.144 98.9243 22.624C98.4549 23.0933 97.8789 23.472 97.1962 23.76C96.5243 24.048 95.7616 24.192 94.9083 24.192ZM104.699 24V12.08H106.875V18.288L106.283 18.08L111.355 12.08H114.091L109.339 17.712L109.467 16.176L114.235 24H111.675L108.475 18.752L106.875 20.656V24H104.699Z" fill="black"/>
</svg>
